<svg version="1.1" id="Logo" xmlns="http://www.w3.org/2000/svg" xmlns:xlink="http://www.w3.org/1999/xlink" x="0px" y="0px"
	 viewBox="0 0 757.8 762.8" style="enable-background:new 0 0 757.8 762.8;" xml:space="preserve" role="img">
<title>BaumKrone Berlin</title>
<circle class="st0" cx="376.6" cy="383.9" r="378.9"/>
<g>
	<path d="M229.2,160.5c1.2-3.2,2.2-6,3.2-8.8c1.1-3.4,2.2-6.9,3.3-10.3c4.3-14,8.5-28,12.9-42c1.5-4.8,3.6-9.4,5.7-14
		c0.3-0.7,2.3-1,3.4-0.8c12.3,2.3,21.3,10.4,30.5,18c2.1,1.7-2.1,6.5,3.5,6.5c2.6,0,5.6,0.5,7.8,1.9c4.9,2.9,9.5,6.4,14.2,9.8
		c3.4,2.5,5.8,2.6,8.8-1.1c9.3-11.3,19.2-22,28.4-33.4c5.5-6.8,10-14.5,17.5-19.4c1.3-0.9,2.7-1.7,2.9-1.8c3,3,5.5,5.2,7.6,7.8
		c3.4,4.2,6.6,8.7,9.8,13.1c5.9,8,11.8,16,17.7,24c2,2.7,3.5,5.7,5.5,8.3c2.1,2.7,4,3.9,7.9,1.4c12.8-8.3,26-16,39.1-23.8
		c6.1-3.6,12.7-6.4,18.5-10.4c4.9-3.3,6.9-0.2,8.6,2.8c4.3,7.6,8.5,15.3,11.9,23.4c1.9,4.5,1.8,9.7,2.8,14.5
		c2.1,9.4,4.4,18.8,6.7,29c6.4-1.9,12-2.8,17-5.1c16.5-7.5,33.7-12,51.4-15.3c3.2-0.6,4.4,0.2,4.7,3.6c2.4,21.7,2.3,43.5,1,65.2
		c-0.1,2.3-0.9,4.5-1.1,6.8c-0.4,4.7,2.9,7,7.5,6.4c5.7-0.7,11.5-1,17.1-0.7c10.6,0.7,21.2,1.7,31.7,3c6.6,0.8,13,2.3,19.5,3.9
		c0.7,0.2,1.3,2.6,1.1,3.9c-2,12.1-7.2,23-11.8,34.3c-4.2,10.4-6.2,21.6-8.9,32.5c-0.9,3.6,1.5,5.7,4.5,6.8
		c7.2,2.6,14.6,4.8,21.7,7.6c6.1,2.4,12,5.5,17.9,8.3c0.9,0.4,1.7,0.9,2.6,1.4c5.2,2.7,10.6,5.2,15.6,8.3c3.8,2.3,2.1,5.7,0.1,8.2
		c-9.6,11.9-19.4,23.6-29.2,35.3c-3.9,4.7-8,9.2-12.3,13.5c-3.2,3.1-3.8,6.7-3.3,10.8c0.1,1.1,0.5,2.3,1.2,3.1
		c6.1,7.1,13.5,12.6,21.1,18.1c5.2,3.8,9.3,9.2,13.8,13.9c3.8,4.1,7.7,8.2,11.1,12.6c1.2,1.5,1.2,3.8,1.8,5.7
		c-1.8,0.4-3.7,1.4-5.5,1.3c-13.7-0.8-27.3-2-41-2.5c-4.4-0.2-8.9,1-13.3,1.7c-3.1,0.5-4.3-0.4-4-3.7c0.4-5.7,0.2-11.1,3.3-16.8
		c2.6-4.8,1.8-11.6,1.7-17.6c-0.1-4.2-1.6-8.3-2.4-12.4c-0.3-1.6-0.5-3.3-0.6-4.9c-0.6-8.1-0.6-16.2-1.8-24.2
		c-1.8-12.9-3.7-25.8-6.8-38.4c-2.6-10.6-6.8-20.8-10.3-31.2c-0.4-1.2-0.4-2.5-0.6-3.7c-0.3-2.2,0-4.6-0.9-6.5
		c-4.1-8.1-8.5-16.1-13-24c-1.8-3.2-4.2-6-6.4-8.9c-7.5-9.9-15-19.8-22.8-29.5c-7.5-9.3-15-18.5-23.1-27.2c-4-4.3-9.3-7.5-14.2-11.2
		c-6.8-5.1-13.4-10.6-20.7-15.1c-6.1-3.8-13.2-6.1-19.6-9.4c-6.7-3.5-13.2-7.5-19.8-11.2c-2.7-1.5-5.5-3.1-8.4-4.2
		c-14.2-5.6-28.5-11.4-44.2-11.4c-0.6,0-1.5,0-1.9-0.4c-3.6-4-7.4-2.9-9.8-1.2c-4.1-0.9-6.9-1.5-9.7-2c-3.4-0.6-6.9-1.5-10.3-1.7
		c-6.2-0.3-12.4,0-18.6-0.1c-4.9-0.1-10.1-1.6-14.6-0.4c-4.7,1.2-8.7-0.6-13.1-0.1c-7.7,0.9-15.4,1.5-23.1,2.5
		c-2.7,0.4-5.7,0.5-7.3,4c-0.7,1.6-3.9,2.4-6.1,3c-9.9,2.7-20.1,4.6-29.8,8c-9.7,3.3-18.9,7.9-28.2,12.2c-6.3,2.9-12.5,6.1-18.4,9.7
		c-8.9,5.4-17.6,11-26.2,16.8c-5.3,3.6-10.9,7-15.2,11.6c-4.8,5.1-8.4,11.4-12.5,17.3c-5.4,7.8-10.6,15.8-16,23.5
		c-2.3,3.3-5.2,6.3-7.6,9.7c-3,4.3-6,8.7-8.2,13.4c-4.1,8.9-8,17.8-11.2,27c-3.9,11.2-7.3,22.7-10.4,34.2
		c-2.5,9.3-4.9,18.7-6.4,28.1c-1.7,10.5-3.6,21.1-3.2,31.6c0.7,18,3.1,36,4.7,54c0.6,6.7,0.9,13.4,1.6,20.1c0.3,3.2,1,6.3,1.6,9.9
		c-6.1,1.3-13,2.6-19.9,4.2c-12.4,3-25,1.4-37.5,2.5c-3.7,0.3-5.3-2.4-3.4-6.4c2.2-4.6,4.3-9.5,7.2-13.6
		c9.4-12.3,18.4-24.3,27.4-36.3c3.9-5.1,8-10,11.7-14.5c-10.1-9-20.2-17.5-29.7-26.6c-7.1-6.9-13.5-14.5-20.3-21.8
		c-0.6-0.6-1.1-1.2-1.8-1.8c-5.6-5-5.5-4.9,0.2-9.5c10.3-8.2,21.2-15.4,34-19.4c3.1-1,5.5-3.9,8.4-5.6c5.9-3.4,12-6.4,17.8-10
		c6-3.7,6-8.3,2.1-14.2c-5.8-8.8-10.9-18.1-16.1-27.2c-5.3-9.4-10.4-18.9-15.6-28.3c-0.8-1.5-1.8-2.8-2.4-4.3
		c-1.1-2.7-0.2-3.6,2.7-3.3c1.9,0.2,3.9-0.6,5.9-0.8c5.5-0.7,11.1-1.3,16.6-2.1c2.7-0.4,5.5-1.1,8.2-1.8c6-1.5,12-3.4,18.1-4.6
		c5.5-1.1,11-1.5,16.6-2.3c3.1-0.5,4.6-1.9,4.1-5.5c-1.6-10.8-3.5-21.6-4.1-32.5c-0.7-11.9-5.1-23.5-2.2-35.6
		c1.5-6.1,8.2-8.9,13.5-5.8c3.5,2.1,7.6,3.3,11.6,4.5c8.2,2.6,16.3,5.9,24.7,7.3C215.3,152.8,221.9,158.6,229.2,160.5z"/>
	<path d="M423.6,598.4c-8-3.9-16-7.8-24.3-11.9c1.5,2.9,2.9,5.9,5,10c-4.3-1.3-7.2-2.2-10.9-3.3c1.6-1.4,2.7-2.4,3.9-3.4
		c-2-9.2-7.1-12.8-15.7-10.5c-4.1,1.1-5.6-0.3-5.5-4.7c1.1,0.1,2.2,0.4,3.1,0.1c1.1-0.4,2.4-1.2,2.9-2.2c0.4-1,0.4-2.9-0.3-3.5
		c-5.9-5.5-8.4-12.4-9-20.3c-0.7-9.1-2-18.1-2.6-27.2c-0.2-2.9,1.9-6,1.6-8.8c-0.6-6.2-2.8-12.2-3.1-18.3
		c-0.6-13.5-0.4-27.1-0.6-40.6c-0.1-4.9,0.1-9.9-0.7-14.7c-2.5-15.1-0.2-30.2,0.6-45.2c0.2-4.9-0.3-10-1.6-14.7
		c-1.4-5.1,1.4-7.2,5.8-10.3c-0.1,2-0.1,3.2-0.3,4.3c-0.4,1.7-1.8,3.5-1.5,5s2.3,2.6,3.5,3.9c0.9-1.3,2.4-2.5,2.7-3.9
		c0.6-2.6,0.6-5.4,0.8-8.8c-0.1-0.1-1.1-0.5-2.3-1.1c0.6-0.7,1.2-1.5,2.5-3.1c-2.7,0.2-4.6,0.6-6.5,0.5c-1.7-0.1-3.4-0.7-5-1.6
		c7.4-4.7,3.7-11.8,4.7-17.6c2.1-12.1-3.4-23.3-5.5-35c-0.2-1.3-0.5-2.6-0.8-3.8c-6.8,2.1-7.3,2.6-6.2,9.4c1,6.2,2.3,12.3,2.3,18.8
		c-1.6-2.7-3.2-5.5-4.8-8.2c0.2,0,0.4-0.1,0.6-0.1c-0.7-2.7-1.4-5.3-2-8c-1.2,0.4-2.4,0.8-3.4,1.2c-3.3-5.6-6.9-11.6-10.5-17.6
		c-0.3-0.6-0.8-1.4-0.6-1.8c2.1-5.2-1.8-7.4-4.9-9.9c-9-7.5-17.9-14.9-27-22.5c0.7-0.6,1-1,1.2-1c14.3,5.2,25.9,14.5,36.7,24.8
		c1.5,1.5,2.3,3.7,3.8,5.2c0.7,0.7,3.1,1.1,3.2,0.8c1.6-2.8,2.8-5.8,4.4-8.6c1-1.8,2.5-3.4,3.6-5.2c1.3-2.1,2.7-4.2,3.3-6.5
		c0.7-2.5,0.8-5.2,0.8-7.8c0.1-5.1-0.5-10.3,0-15.3c0.9-9.7,3.4-19.4,3.4-29.1c0-12.1-1.9-24.3-2.8-36.5c-0.1-1.7,0.4-3.4,0.7-5
		c2.9,1,5.2,1.6,7.4,2.5c0.6,0.3,1.4,1.2,1.4,1.8c0.1,4.6,0,9.2,0,13.7c0,4.4-0.2,8.9-0.2,13.3c0,3,0.2,5.9,0.2,8.9
		c0,2.1-0.5,4.3,2.7,4.9c1,0.2,2.5,2,2.5,3.1c0.1,3.9-0.3,7.9-1.4,12c-1.2-2.9-2.4-5.8-3.6-8.9c-3.4,4.2-2.8,13.2,1.3,19.6
		c0.9-1.6,1.6-2.9,2.4-4.6c4.5,3.5,8.6,3.5,13-0.6c3.3-3.1,7.4-5.4,11.1-8.1c0.6,0.6,1.1,1.1,1.7,1.7c-1.7,2.5-3.4,5.1-5.2,7.6
		c-0.5,0.7-1.2,1.1-1.8,1.8c-3.8,4.7-8,9.1-11.4,14.1c-1.9,2.8-3.2,6.4-3.8,9.9c-1,5.9-1.5,12-1.6,18c-0.1,6.5,0.4,13.1,0.6,19.6
		c0.1,4.9-1.2,10.4,0.5,14.7c2.4,5.9-0.1,11.7,1.7,17.3c1.4,4.3,2.6,5.2,6.4,2.6c4.1-2.8,7.8-6.1,12-8.8c2.5-1.6,6-1.7,8.2-3.6
		c8.4-7.4,17.4-13.4,28.1-16.9c2.2-0.7,4.7-2.7,5.6-4.7c2.5-5.5,7.7-5.6,12.1-7.8c6.1-2.9,11.4-7.3,17-11.2c3.2-2.3,6.3-4.8,9.4-7.2
		c0.3,0.4,0.7,0.8,1,1.2c-18.5,14.6-37,29.1-55.5,43.7c0.1,0.7,0.2,1.4,0.3,2.1c3.3,0.8,6.6,2,10,2.2c11.5,0.7,22.9,1.2,34.4,1.5
		c4.1,0.1,8.3-1,12.4-0.8c12.5,0.5,24.9,1.2,37.3,2c0.7,0,1.4,0.7,2,2.4c-1.4,0-2.9-0.3-4.2,0.1c-9.2,2.8-18.5-0.3-27.7,0.6
		c-10.2,1-20.3,2.6-30.4,3.8c-4.4,0.5-8.9,0.7-13.4,1.1c-9.4,0.8-18.8,1.6-28.2,2.3c-0.8,0.1-1.9-0.2-2.5,0.3
		c-9.2,6.9-21.4,9.3-27.9,20.1c-6.3,10.4-8.9,21.1-7.6,33.2c0.7,6.8,0.9,15-2.3,20.4c-3.6,6.1-2.2,10.8-1.7,16.6
		c1.3,15.3,2.3,30.6,2.8,46c0.3,8.7-1,17.5-0.8,26.3c0.1,5.6,1.7,11.1,2.5,16.7c0.5,3.1,0.4,6.3,1.2,9.4c0.9,3.5,2.3,7,3.8,10.3
		c3.7,8.1,8,15.2,16.1,20.8c8.8,6.1,18.7,4.8,27.6,8.4c5,2,9.9,4.6,14.9,6.8c3.5,1.6,6.9,3.5,10.6,4.3c6.6,1.3,13.3,1.8,19.9,2.9
		c1.2,0.2,2.3,1.4,3.5,2.1c-1.1,0.7-2.1,1.7-3.3,2.2c-2.1,0.9-4.4,1.8-6.6,2c-2,0.2-4.2-0.2-6.1-1c-4.6-1.8-9.2-3.7-13.5-6.1
		c-7.4-4.2-15.6-5.3-23.6-7c-3-0.6-7.2-2.9-9,1c-1.5,3.4,1.9,6,4.6,8.1c0.6,0.5,1,1.1,1.6,1.6C424.2,597.4,423.9,597.9,423.6,598.4z
		 M397.5,574.9c-0.4,0.8-0.9,1.6-1.3,2.5c1.4,1.4,2.7,2.9,4.1,4.2c1.2,1.1,2.8,1.8,3.7,3c3.3,4.5,5.7,4.7,10.3,1.2
		c1.5-1.2,3.9-1.4,5.9-1.7c2.4-0.4,4.9-0.4,7.3-0.5c0-0.5,0.1-1,0.1-1.6c-1.1-0.4-2.2-1.2-3.4-1.3C415,580,405.2,584,397.5,574.9z
		 M411.5,346.9c8,0,15.5,0,23,0c-1.1-1.3-2.2-1.5-3.3-1.8c-3.3-0.8-7.2-0.9-9.7-2.8s-4.1-3-7.2-1.7c-2.5,1.1-5.3,1.3-7.9,2
		c0.1,0.5,0.2,1.1,0.2,1.6c1.7,0,3.4,0,5.2,0C411.8,344.9,411.6,345.8,411.5,346.9z M378.8,395.9c-5,8.3-3.6,17.2-1.5,26.1
		C381.4,413.7,379.5,404.8,378.8,395.9z M380.7,543.2c-0.4-3-0.5-5.8-1.1-8.4c-0.3-1.1-1.8-1.9-2.7-2.8c-0.6,1.2-1.5,2.3-1.6,3.5
		c-0.3,1.9-0.3,3.8,0,5.7c0.4,2.6,1.2,5.2,1.8,7.8c0.5-0.1,0.9-0.2,1.4-0.4c-0.2-1.6-0.4-3.1-0.6-4.8
		C379.1,543.5,380.1,543.3,380.7,543.2z"/>
	<path d="M361.2,579c-3-0.7-5-1.2-6.2-1.5c0-2.9,0-5.4,0-8.4c-6.2,4-7.1,6.7-3.1,11.6c-2.9,0.3-5.4,1.3-7.3,0.6
		c-6.6-2.3-12.3-1.1-18.4,2.2c-7.2,3.9-15.2,6.6-22.9,9.5c-1,0.4-2.5-0.7-3.8-1.1c0.5-0.8,0.8-1.9,1.5-2.2c4.7-2.2,9.3-4.6,14.2-6.1
		c7.9-2.4,15.7-4.9,22.1-10.6c0.6-0.5,1.5-1,2.2-0.9c7.2,0.7,9.7-4.2,12.8-9.6c7.6-13.3,7.7-28.2,5.8-42
		c-2.3-16.8-1.4-33.4-2.7-50.1c-0.8-10.5-0.3-21.2-1-31.7c-0.8-12.7-1.9-25.4-3.4-38.1c-0.7-5.9-3.6-10.2-10.3-12.3
		c-9.3-2.9-18.1-7.4-27.2-11c-11.1-4.5-22.5-7.9-34.5-8.8c-4.7-0.4-9.2-2.1-13.9-2.9c-11.5-2-22.7-5.9-34.7-4.5
		c-1,0.1-2.1-0.2-3-0.9c8,0,15.9,0,23.9,0c0.7,0,1.3,0.4,2,0.3c10.8-1.5,20.9,2,31.2,4.1c5.2,1,10.1,3.2,15.3,3.9
		c7.1,1.1,14.3,1.4,21.5,1.8c1.6,0.1,3.3-0.9,5.3-1.4c2.9,3.4,6.6,3.4,11.1,2.8c2.4-0.3,5.3,1.9,7.6,3.5c0.7,0.5,0.3,2.6,0.4,4.9
		c1.3,0.6,3.7,1.4,5.7,2.7c2.2,1.3,4.4,2.8,6.1,4.6c1.4,1.5,2.1,3.6,3.2,5.4c-0.4,0.2-0.9,0.5-1.3,0.7c-2.6-2.3-5.1-4.6-7.7-6.9
		c-0.3,0.3-0.6,0.6-0.9,0.9c2,3.7,4,7.3,5.9,11c-0.4-0.1-0.7-0.1-1.1-0.2c-0.2,2.6-0.7,5.3-0.5,7.9c0.2,4.2,0.9,8.4,1.4,12.6
		c0.4,3.1,0.9,6.2,1,9.4c0.4,10.2,0.7,20.3,1.1,30.5c0.2,4.1,0.5,8.2,1,12.2c1.3,9.5,3.2,18.9,4,28.4c0.5,5.8-0.7,11.8-0.8,17.7
		c-0.1,11.6-0.1,23.2,0.1,34.8c0,1.1,0.7,2.7,1.6,3.3c3.7,2.7,3.9,5.8,0.7,8.9c-1.2,1.1-1.7,3-2.1,4.7
		C362.3,571.9,361.8,575.2,361.2,579z"/>
	<path d="M433.1,180.1c-5.5-4.7-11.3-7.6-18.3-8c-14.4-0.8-28.9-2.1-43.3-2.2c-7.2-0.1-14.4,2.1-21.5,3.4c-6.2,1-12.5,1.9-18.6,3.3
		c-5.1,1.1-10.2,2.6-15.2,4.4c-8.8,3.1-17.5,6.6-26.3,9.9c-0.3-0.5-0.5-1-0.8-1.5c1.4-0.9,2.6-2.1,4.1-2.8c9.6-4,19.3-7.9,29-11.8
		c1.1-0.4,2.3-0.9,3.4-0.8c11.9,0.6,22.8-4.4,34.2-6.2c9.1-1.4,18.6-1,27.9-0.7c10,0.4,19.9,1.8,29.9,2.4c7.5,0.4,13,4.5,18.5,8.9
		c0.1,0.1,0.3,0.2,0.4,0.3c1.3,1.9-0.2,6.1,3.8,5.7c5.4-0.4,11.5-0.2,16-2.6c7.5-3.9,14.2-3.8,21.5-0.6c3.3,1.5,6.9,2.4,10.3,3.8
		c5,2.1,7.3,4.9,8.4,10.5c-1.2-0.7-2.5-1-3-1.7c-5.8-8.1-15.2-8.8-23.5-11.8c-1.6-0.6-3.7-0.6-5.4-0.2c-8.6,2.1-17.1,4.5-26.2,6.9
		c0.3,2.2,1.3,4,4.8,4c7.9,0.1,15.2,2.6,22,6.5c6,3.5,11.9,7.1,18.1,10.2c7.6,3.8,10.7,10,8.3,18c-2.3,7.8-12,15-21.6,15.3
		c4.3-2.7,8-4.9,11.6-7.3c4.2-2.8,6.3-6.7,6.5-11.7c0.1-4.6-4-10-8-12.2c-7.4-4-14.5-8.6-21.8-12.8c-1.6-0.9-3.6-1.1-5.4-1.2
		c-2.6-0.1-5.3,0.5-7.9,0.1C436.5,196.7,431,188.3,433.1,180.1z"/>
	<path d="M80.4,499.4c1.9,7,2.5,7.3,10,5.2c10-2.8,20.1-5.7,30.1-8.5c1.2-0.3,2.4-0.9,3.8-1.5c-1.1-1.6-2-2.9-3.4-4.8
		c7.3,1.4,11.5,5.8,13.2,11.1c1.8,5.4,2.7,11.6-3.2,16.4c-5.8,4.7-8.6,5.4-15.1,1.3c-6.9-4.2-6.6-4.1-9.4,3.1
		c-1.7,4.4-4.2,8.8-9.9,9.4c-6.7,0.6-13.2-2.2-15.5-7.7C77.7,515.6,76,507.7,80.4,499.4z M82.8,512.4c0,7.2,7.7,15,13.2,14.5
		c1.6-0.1,3.7-2.4,4.3-4.2c1.1-3.1,1.3-6.4,1.7-9.7c0.2-1.3,0.4-3-0.3-3.8C97.3,504.4,84.3,510.4,82.8,512.4z M106.5,504.5
		c2.3,6.9,8.1,7.8,12.9,8.9c3.4,0.8,8.9,0.1,10.7-2.2c2.4-3,1.7-8.1-1.1-11.4C121.3,501.5,114.1,503,106.5,504.5z"/>
	<path d="M502.1,225.5c0.6,9.4,7.6,9.2,14,10.7c6.3,1.4,12.5,3.6,18.3,6.3c2.5,1.2,4.8,4.2,5.9,7c2.6,6.7,6.8,11.5,13.5,13.7
		c9.3,3,15.8,9.6,21.9,16.7c4.4,5,8.6,10.2,12.4,15.6c2.4,3.5,4.1,7.5,5.6,11.5c3.5,9.1,6.3,18.6,10.3,27.5
		c3.4,7.5,8.1,14.3,12.3,21.5c0.3,0.6,1,1.1,1,1.7c-0.3,6.2-0.8,12.4-1.2,18.5c-4.2-5-8.4-9.1-11.6-14c-2-3-2.8-6.9-3.5-10.6
		c-1.8-8.9-1.4-18.2-6.8-26.3c-3.3-5-7.1-8.1-13.4-7.8c-5.8,0.3-11.7,0.1-17.4,0.1c2.1-4.8,6.2-6.1,10.6-3.3c1.3,0.8,3,1.4,4.6,1.6
		c4.4,0.5,8.8,0.7,14.3,1.1c-1.6-5.5-2.2-11.8-5.2-16.6c-7-11.4-14.9-22.5-26.3-30.2c-3.4-2.3-7.7-3.3-10.9-5.8
		c-3.9-2.9-8.5-6.2-10.3-10.3c-3.3-7.6-9.2-11.2-16.2-13.5c-4.9-1.6-10-2.3-15-3.5C502.9,235.7,500.5,232,502.1,225.5z M611.8,365.7
		c0.3-3.8,1.7-7.4,0.5-9.7c-3-5.8-7.2-11-11-16.5C605,347.7,599.4,359.2,611.8,365.7z"/>
	<path d="M432.8,432.6c1.6-0.3,3.1-0.9,4.7-0.7c1.4,0.1,2.8,1,4.2,1.5c7,2.5,13.8,5.5,21.3,0.8c2.3-1.4,6-0.8,9.1-0.6
		c6.3,0.5,12.6,1.2,18.8,2.1c3.1,0.4,6.4,0.7,9.2,2c8.8,4.2,18.1,4.3,27.4,3.6c4.3-0.4,8.3-3,12.6-4.4c5.9-2,11.8-4.3,17.9-5.7
		c9.6-2.2,19.2-3.9,28.9-5.3c2.3-0.3,4.9,1,7.3,1.9c0.5,0.2,0.9,1.9,0.6,2.5c-0.3,0.6-2,1.4-2.4,1.1c-6.1-4.5-12.2-0.4-18.2,0.3
		c-7.2,0.8-14.3,2.6-21.4,4c-0.1,0.5-0.2,1.1-0.3,1.6c4,1.2,8.1,2.4,12.8,3.8c-0.4-1.8-0.6-2.6-0.7-2.7c11.3,1.2,22.7,2.4,33.1,3.5
		c-1.4,1.4-7.8,2.8-13.4,2.4c-7-0.6-14-0.6-20.9-1.6c-4-0.6-8.1-2-11.5-4.1c-2.9-1.7-5.3-2.5-8.3-1c-1.5,0.7-3.1,1.2-4.5,2.2
		c-11.9,8.3-24.5,6.1-37.3,2.8c-5.4-1.4-10.9-2.4-16.4-3.3c-4.4-0.8-9.1-0.6-13.3-1.9c-5.5-1.7-9.9-0.3-14.6,2.3
		c-2,1.1-5.1,1.4-7.3,0.7c-5.9-1.7-11.5-4-17.3-6.1C432.9,433.7,432.9,433.2,432.8,432.6z"/>
	<path d="M166.1,604.5c-4,3.7-8.5,1.3-12.3,0.2c-3.4-1.1-7-3.4-9.1-6.2c-2-2.6-3.1-6.7-2.8-10c0.4-3.6,2.9-6.9,4.9-11.2
		c-3-0.2-5.3-0.4-7.7-0.4c-5.8-0.2-11.1-5.4-10.8-10.6c0.4-5.5,5.1-9.1,11.7-8.8c6.7,0.3,9.2,1.1,14.4,3.2s7.1,5,7.3,10.1
		c0.2,3.6-0.2,5.8-4.7,6.3c-5.9,0.7-8,6-8.6,10.9c-0.3,2.6,1.7,6.4,3.8,8.3C155.9,599.3,160.6,601.3,166.1,604.5z M137.4,562.2
		c-5.4,1.7-6.5,5.9-1.7,8.8c3.7,2.3,8.6,3.2,13,3.5c2.4,0.1,5.6-1.3,7.4-3.8c0.5-0.7,0.7-3.3,0.3-3.5
		C152.4,563.6,143.9,559.6,137.4,562.2z"/>
	<path d="M301.9,668.1c3.5-1.3,7-2.7,10.5-3.9c8.6-3,10.7-1.5,11,7.7c0.2,5,0.6,10,1,14.9c0.3,3.5-1.1,4.5-4.8,3.6
		c-0.4-6.2-0.6-12.3-1.2-18.3s-2.6-7.1-7.9-4.1c-4,2.3-7.5,5.3-11.3,7.9c-1,0.7-2.2,0.9-3.4,1.3c-0.4-1.2-1.2-2.5-1-3.6
		c0.9-4.2,1.9-8.4,3.4-12.4c1.3-3.6,0.5-5-3.2-4c-8.2,2.2-16.6,4.2-19.6,14c-0.3,1.1-2.5,1.6-3.7,2.3c-0.4-1.4-1.5-3-1.1-4.1
		c1.8-4.8,4.2-9.4,6.2-14.1c0.9-2,1.4-4.1,2.4-5.9c0.4-0.7,1.8-1,2.7-1.4c0.4,0.9,1.1,1.9,1,2.8c-0.2,2.5-0.8,4.9-1.2,7.4
		c2.5-0.6,5-1.1,7.5-1.7c3.1-0.7,6.1-1.7,9.2-2.3c4.1-0.9,5.1,1.3,4.3,4.9c-0.6,2.7-1.4,5.3-2.2,8
		C301.1,667.3,301.5,667.7,301.9,668.1z"/>
	<path d="M237.5,437.2c0.7,0.4,1.3,1.1,2,1.3c6.4,1,12.8,2.2,19.2,2.6c2.8,0.2,6.4-0.5,8.6-2.1c7.6-5.8,16.3-4.9,24.9-5.5
		c2.9-0.2,5.8-1.2,8.6-0.9c2.5,0.2,5.1,1.2,7.3,2.5c6.4,3.8,12.9,5.9,20.4,4.1c1.1-0.3,2.5,0.2,3.6,0.7c2,0.7,4,1.6,5.8,2.6
		c0.9,0.5,1.7,1.5,2.3,2.4c0.2,0.3-0.3,1.6-0.5,1.7c-1.1,0.1-2.8,0.4-3.2-0.2c-3.8-5.1-7.7-0.8-11.5-0.2c-2.4,0.4-4.8,1-7.2,1.5
		c-0.1-0.5-0.3-1.1-0.4-1.6c1.2-0.6,2.3-1.2,3.9-2c-1.2-0.4-2.1-0.7-3-0.9c-4.7-1.2-9.8-1.7-14-3.9c-7.8-4-20.5-3.9-27.6,1.3
		c-6,4.4-12.7,4.4-19.6,3.5c-4.9-0.6-9.8-1.4-14.8-2.1C239.7,441.4,236.8,441.2,237.5,437.2L237.5,437.2z"/>
	<path d="M581.1,620.4c-1-4.2-1.9-7.1-4.5-8.9c-2.4-1.7-7.3-3.4-12.4,0.1c-5,3.6-6.6,11.6-3.6,17.3c2.2,4.1,8.1,5.7,12.5,4
		c4-1.5,6.4-3.7,7.8-7c0.7,4.7-3.5,12.3-12,12.3c-7.6,0-13.8-7-14.3-13.2c-0.3-4.1-0.1-7.9,1.8-11.6c2.4-4.7,7.7-7.5,13.5-7.3
		C577,607.1,581.1,611.6,581.1,620.4z"/>
	<path d="M680.2,483.1c4.9,10.9-3.4,24.5-14.3,25.9c-4.9,0.7-10,0.9-15,0.9c-0.9,0-2.8-2.5-2.6-2.8c1.9-3-1-4-1.9-5.9
		c-1-2-2.8-5.1-3.5-7.2c-1.3-3.9-1.9-6.8-1.6-10.5c0.1-1.2,1-3.2,1.9-4c2.9-2.7,7.8-1.3,10.2,1.7c3.6,4.7,3.2,9.8,3.1,15.2
		c-0.1,2.5-0.1,6.8,0.9,7.1c3.1,1,7,1.5,10,0.4c6.8-2.5,11-7.8,11.8-15.3C679.1,487.2,679.5,485.9,680.2,483.1z M648.7,480.6
		c-3.7,4.6-2.8,10.8,2.3,17.3C654,493.7,652.9,485.2,648.7,480.6z"/>
	<path d="M205.2,606.5c-0.4,1.2-0.7,2.4-1.2,3.6c-1.8,4-4.1,7.9-5.4,12.1c-1.5,5,1.3,8.2,6.7,8.4c6.9,0.3,12-2.9,16.3-8
		c0.6-0.7,1.3-1.4,2-2.1c0.2-0.1,0.6,0,1.6,0.1c-5.1,11.3-10.4,22.8,4.2,31.1c-9.1,1.5-12.7-2.9-14.8-18.7c-2.6,0.6-5.1,1.2-7.5,1.8
		c-6.9,1.7-10.7,0.3-14.5-6.2c-2.6-4.5-0.3-8.7,2.1-12.3c1.6-2.4,3.3-4.7,4.9-7.1c1-1.5,2.6-2.6,3.9-3.9
		C204.1,605.9,204.6,606.2,205.2,606.5z"/>
	<path d="M428.8,700.7c-6.4-15.3-5.5-30.9-9-45.8c3.6,0.7,4.7,2.4,5.3,6.6c1.1,8,2.3,16,3.5,24.1c0.6,0.2,1.2,0.4,1.8,0.6
		c3.9-5.7,7.7-11.4,11.6-17c4.7-6.8,9.3-13.7,14.2-20.3c0.8-1.1,3.1-1,4.6-1.5c-0.6,1.3-1,2.7-1.8,3.8c-5.8,8.1-12.2,15.8-17.4,24.2
		C436.9,682.9,433.6,691.2,428.8,700.7z"/>
	<path d="M168,345.5c-2.5,3.2-5.2,6.3-7.6,9.5c-3.8,5.1-4.1,13.6,4.1,17.5c10,4.7,19.9,5.9,30.5,4c7.4-1.3,10.1,0.9,11.8,8.1
		c0.5,2,2.8,3.9,4.7,5.2c2.5,1.8,5.5,3,8.3,4.5c0.2,0.1,0.1,0.6,0.2,0.9c-8.3,0.9-14.5-3.1-16.6-10.4c-1.6-5.6-3.2-6.6-9.7-5.2
		c-10.8,2.4-21.1,1-31-4c-7.7-3.9-10.3-9.1-7.3-17c1.8-4.6,4.7-8.8,7.5-12.8c0.8-1.1,3.1-1.2,4.7-1.8
		C167.7,344.5,167.9,345,168,345.5z"/>
	<path d="M604.2,570.2c4.5,2.3,8.4,4.3,13,6.6c0-5.5,0.4-10.2-0.1-14.9c-0.7-6.6,0.9-10.2,6.1-11.1c1.2-0.2,2.7-0.1,3.8,0.5
		c10.7,5.5,10.7,5.5,22.4,4.8c-0.6,4.7-4,6-7.7,5.9c-3.6-0.1-7.3-0.8-10.5-2.2s-5.3-3.4-8.7-5.9c-1,0.8-2,1.7-1.8,3.7
		c0.8,7.7,1.6,15.4,2.4,23.1c0.2,1.5,0,3-0.1,4.5c-1.4-0.3-3-0.2-4.2-0.9c-3.8-2.2-6.7-5.6-12.2-5.4
		C603.9,579.1,603.2,574.1,604.2,570.2z"/>
	<path d="M261.2,211.2c-1.8,1.8-3.3,4.2-5.5,5.2c-18.9,9.3-35.6,21.2-48.5,38.2c-1,1.3-2.7,2.6-4.3,2.9c-8.9,1.8-14.5,6.9-16.6,15.8
		c-0.5,2-1.4,4-2.5,6.7c-1.7-10,3.3-20,12.2-23.1c7.2-2.5,11.9-7.5,16.6-12.9C226,228.8,242.3,218.1,261.2,211.2L261.2,211.2z"/>
	<path d="M512.5,653.8c2.7-9.4,2.6-15.6,11.2-18.6c-1.6,2.9-3.3,5.6-4.8,8.3c-3.6,6.4-2.2,13.1-0.9,19.8c0.3,1.5-0.7,3.2-1,4.8
		c-1.2-1-2.6-1.8-3.5-3c-4.2-6.1-8.2-12.3-12.2-18.6c-0.5-0.8-0.1-2.1-0.1-3.1c1,0.1,2.3-0.1,3,0.5c1.8,1.6,3.4,3.6,5,5.4
		C510.2,650.6,511.1,652,512.5,653.8z"/>
	<path d="M261.3,211.3c2.5,0.2,5.1,0.3,8.5,0.6c1-3.4,2.1-7.3,3.4-11.1c0.7-2.1,1.7-4.3,3-6c0.5-0.7,2.5-0.2,3.8-0.3
		c-0.3,1.1-0.5,2.4-1.1,3.4c-1.7,3.4-3.9,6.7-5.3,10.3c-0.6,1.4-0.2,4.5,0.6,4.9c1.7,0.8,4,0.6,6,0.3c1.5-0.2,2.8-1.3,4.6-1.5
		c-2.3,2.6-4.7,5.3-7,7.9c-2.2,2.5-4.5,4.9-7.1,7.7c-0.8-1.6-1.2-2-1.1-2.2C272.5,215.7,272.2,215.2,261.3,211.3
		C261.2,211.2,261.3,211.3,261.3,211.3z"/>
	<path d="M352.1,346.5c3.4-2.4,3.4-2.4,8.2,2.6c-1.5,4.1-3.1,8.3-4.4,12.6c-0.3,1.1,0.5,2.5,0.7,3.8c0.8-0.8,2-1.5,2.3-2.5
		c1.1-3.3,2-6.8,3.9-10c-1.2,6.1-2.1,12.3-3.6,18.3c-0.7,2.7-4.9,2.6-6.9,0.2c-0.9-1.1-2.1-1.8-3.1-2.6c1.7-3.1,3.8-6.6,5.6-10.3
		C356.9,354,354.1,350.3,352.1,346.5L352.1,346.5z"/>
	<path d="M431.7,438c-4,2.4-7.8,5.4-12.1,7c-7.9,2.9-16.2,3.4-24.5,1.5c-6.5-1.5-11.1-10.2-8.7-17.9c0.9,2.1,1.5,3.2,1.9,4.5
		c2.2,8.2,8.2,11.4,15.9,11.9c8.3,0.5,16.2-1.2,23-6.5c1.1-0.8,2.3-1.6,3.4-2.3C430.9,436.7,431.3,437.3,431.7,438z"/>
	<path d="M237.5,437.1c-4,1.8-7.9,4-12,5.4c-4.3,1.5-9.1,3.8-13.3,3.2c-6.3-0.9-12.4-4-18.5-6.1c0.2-0.8,0.4-1.6,0.6-2.4
		c2,0.4,4.5,0.2,6,1.3c7.8,5.8,15.7,5.3,23.8,1.2c2.3-1.2,4.4-3.3,6.8-3.9C232.9,435.4,235.3,436.7,237.5,437.1
		C237.5,437.2,237.5,437.1,237.5,437.1z"/>
	<path d="M450.2,671.8c6.2,7.6,17.7,7.6,23.3,16.9C462.2,689.1,448.9,679.7,450.2,671.8z"/>
	<path d="M210.4,408c-5.8-0.3-8.1,4.3-10.9,7.7c-2.9,3.5-5.2,7.5-7.9,11.2c-1,1.4-2.3,2.6-4,3.6c-1.3-5.5,1.2-11.3,4.4-13.8
		C197.2,412.6,201.8,405.5,210.4,408z"/>
	<path d="M365.1,594.6c3.7-0.2,7.5-0.8,11.2-0.3c1.7,0.3,3.6,2.6,4.4,4.4c0.5,1.1-0.8,3.1-1.6,5.4c0.3,0.4,1.2,1.6,2.1,2.9
		c-0.1,0.4-0.3,0.9-0.4,1.3c-1.6-0.4-4.5-0.6-4.6-1.3c-0.6-2.7-0.2-5.6-0.2-9.4c-2.9-0.2-6.9-0.5-11-0.8
		C365,596.2,365,595.4,365.1,594.6z"/>
	<path d="M277.8,602.5c7.9-1.6,15.9-3.3,23.8-4.9c0.1,0.7,0.3,1.4,0.4,2.2c-7.7,3-15.7,4.5-23.9,4.5
		C278,603.6,277.9,603.1,277.8,602.5z"/>
	<path d="M608.8,412.1c0-5.7,0-11.3,0-16.7c4.9,2.1,5.8,8,1.6,16.7C609.9,412,609.4,412,608.8,412.1z"/>
	<path d="M263.3,241.3c-0.3,6.2-0.6,11.6-0.8,17.3C258.9,253.9,259,245.5,263.3,241.3z"/>
	<path d="M172.8,436.8c1.3-1.6,2.6-3.2,4-4.8c1.4,1.3,2.9,2.6,4.3,3.9c-0.2,0.6-0.4,1.1-0.7,1.7C177.8,437.3,175.3,437,172.8,436.8
		L172.8,436.8z"/>
	<path d="M285.6,206.4c-3.7-4.1-3.6-6.8,0.9-10.9C286.2,198.8,286,202.1,285.6,206.4z"/>
	<path d="M352.1,346.5c-0.2-1.3-0.6-2.6-0.7-3.9c0-1.7,0.3-3.4,0.5-5.1c1.9,0.7,3.7,1.5,5,2C354.8,342.4,353.4,344.5,352.1,346.5
		L352.1,346.5z"/>
	<path d="M315.5,197.6c-2,1.9-3.9,3.9-6.1,5.6c-0.7,0.5-2.2-0.2-3.3-0.4c0.6-0.9,0.9-2.1,1.7-2.5c2.3-1.2,4.8-2.1,7.2-3.1
		C315.2,197.3,315.3,197.5,315.5,197.6z"/>
	<path d="M182.4,299c-0.9-1.5-2.1-2.9-2.4-4.5c-0.1-0.6,1.9-1.6,2.9-2.4c0.7,1.9,1.4,3.8,2.1,5.7C184.1,298.1,183.3,298.6,182.4,299
		z"/>
	<path d="M172.7,436.7c0.7,2.3,1.3,4.6,2,6.9c-0.9,0-3.1,0-7,0c2.2-2.9,3.7-4.8,5.2-6.8C172.8,436.8,172.7,436.7,172.7,436.7z"/>
</g>
</svg>
