<?xml version="1.0" encoding="utf-8"?>
<!-- Generator: Adobe Illustrator 24.0.1, SVG Export Plug-In . SVG Version: 6.00 Build 0)  -->
<svg version="1.1" id="WaxGibb" xmlns="http://www.w3.org/2000/svg" xmlns:xlink="http://www.w3.org/1999/xlink" x="0px" y="0px"
	 viewBox="0 0 216.3 216.3" style="enable-background:new 0 0 216.3 216.3;" xml:space="preserve" role="img">
<title>Zunehmender Mond</title>
<style type="text/css">
	.light{fill:#FFFFFF;}
</style>
<g>
	<path class="moon" d="M216.3,108.1c0,59.7-48.4,108.1-108.1,108.1C48.4,216.3,0,167.9,0,108.1C0,48.4,48.4,0,108.1,0
		C167.9,0,216.3,48.4,216.3,108.1z"/>
	<path class="light" d="M198.3,108.1c0-49.7-40.4-90.1-90.1-90.1c-11.3,0-22.1,2.1-32,5.9c-13.7,21.4-22,49.4-22,80.1
		c0,36.2,11.6,68.7,29.9,90.9c7.7,2.1,15.8,3.3,24.2,3.3C157.8,198.3,198.3,157.8,198.3,108.1z"/>
</g>
</svg>
